<svg id="Layer_1" data-name="Layer 1" xmlns="http://www.w3.org/2000/svg" viewBox="0 0 180 180"><defs><style>.cls-1{fill:#b4b4b4;}</style></defs><path class="cls-1" d="M30,126.08H81.81a2,2,0,0,0,2-2V72.29a2,2,0,0,0-2-2H30a2,2,0,0,0-2,2v51.79A2,2,0,0,0,30,126.08Zm2-51.79H79.81v47.79H32Z"/><path class="cls-1" d="M98.19,92.45H150a2,2,0,0,0,2-2V73.18a2,2,0,0,0-2-2H98.19a2,2,0,0,0-2,2V90.45A2,2,0,0,0,98.19,92.45Zm2-17.27H148V88.45H100.19Z"/><path class="cls-1" d="M166.36,36.65H13.64a2,2,0,0,0-2,2v102.7a2,2,0,0,0,2,2H166.36a2,2,0,0,0,2-2V38.65A2,2,0,0,0,166.36,36.65Zm-150.72,4H164.36V53.92H15.64Zm148.72,98.7H15.64V57.92H164.36Z"/><path class="cls-1" d="M98.19,126.08H150a2,2,0,0,0,0-4H98.19a2,2,0,0,0,0,4Z"/><path class="cls-1" d="M98.19,109.27H150a2,2,0,0,0,0-4H98.19a2,2,0,0,0,0,4Z"/></svg>