<svg xmlns="http://www.w3.org/2000/svg" viewBox="0 0 1151.64 631.9"><defs><style>.cls-1{isolation:isolate;}.cls-2{fill:#eef;}.cls-3,.cls-5{fill:#1edcc8;}.cls-4,.cls-6{fill:#55f;}.cls-5,.cls-6{mix-blend-mode:multiply;}.cls-7{fill:#ffbe00;}</style></defs><g class="cls-1"><g id="Layer_2" data-name="Layer 2"><g id="Layer_1-2" data-name="Layer 1"><path class="cls-2" d="M861.24,535.36c-52.48,24-153.38,43.45-225.36,43.45-39.37,0-61.93-5.82-65.71-15,1.59-.7,3.16-1.4,4.69-2.1,20.37-9.31,34.36-18.2,42.27-26.33H902.05l249.59-114.09H809.36L618.25,508.63c-13.59-10.68-47.67-17.15-100.43-17.15-116.33,0-279.4,31.43-364.23,70.21s-59.29,70.21,57,70.21c54.11,0,118.32-6.8,180.08-18,22.68,11.32,66.23,18,129,18,160,0,384.18-43.22,500.81-96.54Z"/><path class="cls-3" d="M519.72,472.61A130.33,130.33,0,0,1,389.39,342.28H230.1c0,160,129.67,289.62,289.62,289.62S809.34,502.23,809.34,342.28H650.05A130.33,130.33,0,0,1,519.72,472.61Z"/><rect class="cls-4" x="348.58" width="342.28" height="342.28" transform="translate(690.86 -348.58) rotate(90)"/><path class="cls-5" d="M440.81,446a130.14,130.14,0,0,1-51.42-103.73H230.1c0,102.22,53,192.06,132.93,243.61A210.29,210.29,0,0,0,440.81,446Z"/><path class="cls-6" d="M426.94,342.28a211.32,211.32,0,0,0-78.36-96.21v96.21Z"/><circle class="cls-7" cx="210.63" cy="421.27" r="210.63"/></g></g></g></svg>